<svg width="12" height="12" viewBox="0 0 12 12" fill="none" xmlns="http://www.w3.org/2000/svg">
<g clip-path="url(#clip0_0_1212)">
<path d="M10.2771 4.69671H7.34632V1.76596C7.34632 1.04593 6.74157 0.456543 6.02127 0.456543C5.30097 0.456543 4.69622 1.04593 4.69622 1.76596V4.69671H1.76547C1.04544 4.69671 0.456055 5.30146 0.456055 6.02176C0.456055 6.74206 1.04544 7.34681 1.76547 7.34681H4.69622V10.2776C4.69622 10.9976 5.30097 11.587 6.02127 11.587C6.74157 11.587 7.34632 10.9976 7.34632 10.2776V7.34681H10.2771C10.9971 7.34681 11.5865 6.74206 11.5865 6.02176C11.5865 5.30146 10.9971 4.69671 10.2771 4.69671Z" fill="white"/>
</g>
<defs>
<clipPath id="clip0_0_1212">
<rect width="11.1304" height="11.1304" fill="white" transform="translate(0.456055 0.456543)"/>
</clipPath>
</defs>
</svg>
