<svg width="70" height="70" viewBox="0 0 70 70" fill="none" xmlns="http://www.w3.org/2000/svg">
<g clip-path="url(#clip0_0_917)">
<path d="M29.508 59.2603C27.9714 59.7961 26.3884 60.1358 24.7824 60.2816C25.9246 59.7146 27.0552 58.9836 28.1582 58.0892C28.5982 57.7325 28.6657 57.0866 28.3089 56.6465C27.9521 56.2065 27.3061 56.1391 26.8662 56.4958C24.0464 58.7823 21.5155 59.5849 19.4265 59.6738C21.0107 58.1924 22.9223 55.5022 25.1789 50.8863C25.4277 50.3772 25.2168 49.763 24.7079 49.5143C24.199 49.2658 23.5847 49.4764 23.3359 49.9853C19.9683 56.8736 17.3668 59.224 16.2695 59.2237C16.196 59.2237 16.1292 59.2132 16.0694 59.1928C15.7029 59.0676 15.469 58.4891 15.3622 58.1552C13.5679 52.5501 18.7645 32.8731 25.6337 23.29L30.261 16.8348C30.5216 16.4711 30.7827 15.9503 30.9961 15.3687L31.1418 14.9717L31.2092 14.9946L31.0815 15.3977C30.8943 15.9885 30.7821 16.5601 30.7656 17.0074L30.4822 24.7492C30.4615 25.3154 30.9037 25.7911 31.4697 25.8119C31.4826 25.8123 31.4953 25.8126 31.5079 25.8126C32.0571 25.8126 32.512 25.3777 32.5322 24.8243L32.7729 18.2475L34.2028 22.3875C34.3494 22.812 34.7469 23.0787 35.1721 23.0787C35.2832 23.0787 35.3961 23.0605 35.507 23.0222C36.0426 22.8373 36.3267 22.2534 36.1418 21.7179L36.0912 21.5716L36.0962 21.5801C36.3889 22.065 37.0191 22.2214 37.5043 21.9285C37.9894 21.6359 38.1454 21.0056 37.8528 20.5205L36.3782 18.0763C36.1057 17.6244 36.0228 17.0716 36.1511 16.5597L38.4701 7.29939C38.6257 6.67823 38.4809 6.03887 38.0728 5.54544C37.6647 5.052 37.0652 4.7897 36.4247 4.8258L30.9985 5.13242C30.2455 5.17509 29.5894 5.63064 29.2861 6.32142L26.275 13.1853C26.0632 13.6683 25.6596 14.0546 25.1675 14.2451L14.5453 18.3585C9.87263 20.168 6.05112 23.2666 3.49356 27.319C1.11912 31.0813 -0.0873842 35.4826 0.00438228 40.0473C0.0961487 44.612 1.47866 48.9614 4.00245 52.625C6.72084 56.5714 10.6639 59.5137 15.4057 61.1339C17.9087 61.9892 20.4538 62.417 22.9709 62.4168C25.4242 62.4168 27.8509 62.0102 30.183 61.1971C30.7178 61.0105 31.0002 60.4256 30.8137 59.8907C30.6272 59.3559 30.0428 59.0734 29.508 59.2603ZM31.1505 7.17877L36.4611 6.87872L34.6749 14.0113L29.0034 12.0734L31.1505 7.17877ZM5.69226 51.4616C3.39701 48.1296 2.13949 44.1683 2.05593 40.0063C1.97223 35.8442 3.06946 31.8358 5.22892 28.414C7.54974 24.7367 11.0276 21.921 15.2867 20.2718L23.2562 17.1856L18.9277 20.0198C15.6975 22.1349 12.8628 25.2847 10.7296 29.1286C8.76158 32.6749 7.42051 36.7237 6.85103 40.8378C6.77335 41.399 7.16531 41.9168 7.72644 41.9944C7.77417 42.0011 7.82149 42.0042 7.8684 42.0042C8.3725 42.0042 8.81205 41.6323 8.88316 41.1189C10.0162 32.932 14.2957 25.5047 20.0516 21.7359L27.9151 16.5869L23.9668 22.095C20.7157 26.6304 17.4683 33.9389 15.2801 41.6449C13.3751 48.3543 12.6051 54.1181 13.124 57.5207C12.101 56.6533 11.2323 55.5395 10.5289 54.1819C9.29413 51.7987 8.62728 48.7449 8.60061 45.3505C8.5961 44.7841 8.13248 44.3242 7.56684 44.333C7.00038 44.3375 6.54483 44.8003 6.5492 45.3669C6.57765 48.9713 7.26638 52.1475 8.51555 54.7214C7.46058 53.7417 6.5131 52.6532 5.69226 51.4616Z" fill="white"/>
<path d="M48.1503 21.4775C36.1022 21.4775 26.3003 31.2794 26.3003 43.3277C26.3003 55.3757 36.1021 65.1776 48.1503 65.1776C60.1985 65.1776 70.0003 55.3757 70.0003 43.3277C70.0001 31.2794 60.1983 21.4775 48.1503 21.4775ZM48.1503 63.1261C37.2333 63.1261 28.3517 54.2446 28.3517 43.3275C28.3517 32.4105 37.2332 23.5288 48.1503 23.5288C59.0673 23.5288 67.9488 32.4105 67.9488 43.3275C67.9488 54.2446 59.0672 63.1261 48.1503 63.1261Z" fill="white"/>
<path d="M48.1502 25.6079C38.3796 25.6079 30.4307 33.5569 30.4307 43.3274C30.4307 53.0979 38.3796 61.0468 48.1502 61.0468C57.9208 61.0468 65.8699 53.0979 65.8699 43.3274C65.8699 33.5569 57.9208 25.6079 48.1502 25.6079ZM48.1502 58.9956C39.5108 58.9956 32.4821 51.9669 32.4821 43.3276C32.4821 34.6883 39.5108 27.6595 48.1502 27.6595C56.7897 27.6595 63.8185 34.6883 63.8185 43.3276C63.8185 51.9669 56.7897 58.9956 48.1502 58.9956Z" fill="white"/>
<path d="M48.15 30.635C41.1513 30.635 35.4575 36.3289 35.4575 43.3276C35.4575 50.3262 41.1513 56.0201 48.15 56.0201C52.8428 56.0201 57.1356 53.4399 59.353 49.2863C59.6198 48.7866 59.431 48.1653 58.9312 47.8984C58.4314 47.6315 57.8101 47.8205 57.5434 48.3202C55.6833 51.8045 52.0841 53.9689 48.15 53.9689C42.2826 53.9689 37.5089 49.1954 37.5089 43.3278C37.5089 37.4602 42.2826 32.6866 48.15 32.6866C54.0176 32.6866 58.7912 37.4602 58.7912 43.3278C58.7912 43.7019 58.77 44.0882 58.7283 44.4752C58.6676 45.0384 59.075 45.5441 59.6382 45.605C60.2011 45.6658 60.7071 45.2583 60.7679 44.6951C60.8174 44.2353 60.8426 43.7753 60.8426 43.3279C60.8425 36.3289 55.1486 30.635 48.15 30.635Z" fill="white"/>
<path d="M40.7705 43.3276C40.7705 47.3969 44.0811 50.7075 48.1504 50.7075C52.2197 50.7075 55.5303 47.3969 55.5303 43.3276C55.5303 39.2583 52.2196 35.9478 48.1504 35.9478C44.0812 35.9478 40.7705 39.2583 40.7705 43.3276ZM53.4788 43.3276C53.4788 46.2657 51.0884 48.6561 48.1504 48.6561C45.2124 48.6561 42.8219 46.2657 42.8219 43.3276C42.8219 40.3896 45.2122 37.9992 48.1504 37.9992C51.0885 37.9992 53.4788 40.3895 53.4788 43.3276Z" fill="white"/>
</g>
<defs>
<clipPath id="clip0_0_917">
<rect width="70" height="70" fill="white"/>
</clipPath>
</defs>
</svg>
