<svg width="18" height="18" viewBox="0 0 18 18" fill="none" xmlns="http://www.w3.org/2000/svg">
<path d="M17.6748 4.00646L16.0955 2.42713C15.879 2.21042 15.6156 2.10202 15.306 2.10202C14.9962 2.10202 14.7328 2.21042 14.5162 2.42713L6.89806 10.0568L3.48385 6.63097C3.26705 6.41417 3.00384 6.3059 2.69427 6.3059C2.38449 6.3059 2.12128 6.41417 1.90448 6.63097L0.325155 8.21034C0.108358 8.42709 0 8.69038 0 9.00012C0 9.30962 0.108358 9.57315 0.325155 9.78987L4.52895 13.9936L6.1084 15.5729C6.32507 15.7898 6.58836 15.8981 6.89806 15.8981C7.20764 15.8981 7.47093 15.7895 7.68772 15.5729L9.26713 13.9936L17.6748 5.58591C17.8914 5.36911 18 5.10586 18 4.79612C18.0002 4.48655 17.8914 4.22326 17.6748 4.00646Z" fill="#72A479"/>
</svg>
