<svg width="16" height="16" viewBox="0 0 16 16" fill="none" xmlns="http://www.w3.org/2000/svg">
<path fill-rule="evenodd" clip-rule="evenodd" d="M1.99313 3.24909C2.20402 2.89924 3.36663 1.62926 4.1951 1.6676C4.44296 1.68882 4.66206 1.83807 4.84008 2.01197H4.84077C5.24884 2.41179 6.41967 3.92071 6.4854 4.23838C6.64767 5.01749 5.71854 5.4666 6.00269 6.25187C6.72709 8.02438 7.97529 9.27245 9.74864 9.99611C10.5333 10.2809 10.9825 9.35256 11.7616 9.51413C12.0793 9.58054 13.5891 10.7506 13.9882 11.1593V11.1593C14.1615 11.3366 14.3121 11.5564 14.3326 11.8042C14.3635 12.6771 13.0146 13.8554 12.7517 14.006C12.1314 14.4503 11.3221 14.4421 10.3354 13.9834C7.58227 12.838 3.18244 8.52142 2.01573 5.66446C1.56931 4.68339 1.53918 3.86868 1.99313 3.24909Z" stroke="white" stroke-linecap="round" stroke-linejoin="round"/>
<path d="M9.70996 1.8335C12.178 2.1075 14.1266 4.05416 14.404 6.5215" stroke="white" stroke-linecap="round" stroke-linejoin="round"/>
<path d="M9.70996 4.19531C10.89 4.42531 11.812 5.34731 12.042 6.52731" stroke="white" stroke-linecap="round" stroke-linejoin="round"/>
</svg>
